<svg width="361" height="71" viewBox="0 0 361 71" fill="none" xmlns="http://www.w3.org/2000/svg">
<path d="M0.339844 0.878906H12.9082C15.2285 0.867187 17.2266 1.07227 18.9023 1.49414C20.5898 1.9043 21.9785 2.49609 23.0684 3.26953C24.1582 4.04297 24.9609 4.97461 25.4766 6.06445C26.0039 7.14258 26.2676 8.34375 26.2676 9.66797C26.2676 10.8281 26.0215 11.9414 25.5293 13.0078C25.0488 14.0625 24.2988 14.9941 23.2793 15.8027C22.2715 16.6113 20.9824 17.2559 19.4121 17.7363C17.8535 18.2168 15.9961 18.457 13.8398 18.457H10.5V27H0.339844V0.878906ZM10.5 14.625C11.3086 14.6133 12.0293 14.4902 12.6621 14.2559C13.2949 14.0098 13.8281 13.6758 14.2617 13.2539C14.6953 12.8203 15.0234 12.3047 15.2461 11.707C15.4805 11.0977 15.5977 10.418 15.5977 9.66797C15.5977 8.92969 15.4805 8.26172 15.2461 7.66406C15.0117 7.06641 14.6719 6.55664 14.2266 6.13477C13.793 5.70117 13.2598 5.36133 12.627 5.11523C12.0059 4.86914 11.2969 4.73437 10.5 4.71094V14.625ZM30.4688 0.878906H40.6289V11.8301H48.1348V0.878906H58.3125L58.2949 27H48.1348V15.8555H40.6289V27H30.4688V0.878906ZM63.4629 13.8867C63.4629 11.9062 63.7793 10.0957 64.4121 8.45508C65.0449 6.80273 65.9883 5.38477 67.2422 4.20117C68.4961 3.01758 70.0605 2.09766 71.9355 1.44141C73.8105 0.785156 75.9902 0.457031 78.4746 0.457031C80.959 0.457031 83.1387 0.785156 85.0137 1.44141C86.8887 2.09766 88.4531 3.01758 89.707 4.20117C90.9609 5.38477 91.9043 6.80273 92.5371 8.45508C93.1699 10.0957 93.4863 11.9062 93.4863 13.8867C93.4863 15.8906 93.1699 17.7246 92.5371 19.3887C91.9043 21.0527 90.9609 22.4766 89.707 23.6602C88.4531 24.8438 86.8887 25.7637 85.0137 26.4199C83.1387 27.0762 80.959 27.4043 78.4746 27.4043C75.9902 27.4043 73.8105 27.0762 71.9355 26.4199C70.0605 25.7637 68.4961 24.8438 67.2422 23.6602C65.9883 22.4766 65.0449 21.0527 64.4121 19.3887C63.7793 17.7246 63.4629 15.8906 63.4629 13.8867ZM78.4746 23.7656C79.1777 23.7656 79.7988 23.6426 80.3379 23.3965C80.877 23.1504 81.3281 22.6699 81.6914 21.9551C82.0547 21.2402 82.3301 20.2383 82.5176 18.9492C82.7051 17.6602 82.7988 15.9727 82.7988 13.8867C82.7988 11.8242 82.7051 10.1543 82.5176 8.87695C82.3301 7.59961 82.0547 6.60938 81.6914 5.90625C81.3281 5.20312 80.877 4.72852 80.3379 4.48242C79.7988 4.23633 79.1777 4.11328 78.4746 4.11328C77.7715 4.11328 77.1445 4.23633 76.5938 4.48242C76.0547 4.72852 75.6035 5.20312 75.2402 5.90625C74.877 6.60938 74.6016 7.59961 74.4141 8.87695C74.2266 10.1543 74.1328 11.8242 74.1328 13.8867C74.1328 15.9727 74.2266 17.6602 74.4141 18.9492C74.6016 20.2383 74.877 21.2402 75.2402 21.9551C75.6035 22.6699 76.0547 23.1504 76.5938 23.3965C77.1445 23.6426 77.7715 23.7656 78.4746 23.7656ZM103.225 4.88672H95.7715V0.861328H120.838V4.88672H113.385V27H103.225V4.88672ZM123.123 13.8867C123.123 11.9062 123.439 10.0957 124.072 8.45508C124.705 6.80273 125.648 5.38477 126.902 4.20117C128.156 3.01758 129.721 2.09766 131.596 1.44141C133.471 0.785156 135.65 0.457031 138.135 0.457031C140.619 0.457031 142.799 0.785156 144.674 1.44141C146.549 2.09766 148.113 3.01758 149.367 4.20117C150.621 5.38477 151.564 6.80273 152.197 8.45508C152.83 10.0957 153.146 11.9062 153.146 13.8867C153.146 15.8906 152.83 17.7246 152.197 19.3887C151.564 21.0527 150.621 22.4766 149.367 23.6602C148.113 24.8438 146.549 25.7637 144.674 26.4199C142.799 27.0762 140.619 27.4043 138.135 27.4043C135.65 27.4043 133.471 27.0762 131.596 26.4199C129.721 25.7637 128.156 24.8438 126.902 23.6602C125.648 22.4766 124.705 21.0527 124.072 19.3887C123.439 17.7246 123.123 15.8906 123.123 13.8867ZM138.135 23.7656C138.838 23.7656 139.459 23.6426 139.998 23.3965C140.537 23.1504 140.988 22.6699 141.352 21.9551C141.715 21.2402 141.99 20.2383 142.178 18.9492C142.365 17.6602 142.459 15.9727 142.459 13.8867C142.459 11.8242 142.365 10.1543 142.178 8.87695C141.99 7.59961 141.715 6.60938 141.352 5.90625C140.988 5.20312 140.537 4.72852 139.998 4.48242C139.459 4.23633 138.838 4.11328 138.135 4.11328C137.432 4.11328 136.805 4.23633 136.254 4.48242C135.715 4.72852 135.264 5.20312 134.9 5.90625C134.537 6.60938 134.262 7.59961 134.074 8.87695C133.887 10.1543 133.793 11.8242 133.793 13.8867C133.793 15.9727 133.887 17.6602 134.074 18.9492C134.262 20.2383 134.537 21.2402 134.9 21.9551C135.264 22.6699 135.715 23.1504 136.254 23.3965C136.805 23.6426 137.432 23.7656 138.135 23.7656ZM156.768 13.957C156.768 12.7148 156.926 11.5195 157.242 10.3711C157.57 9.21094 158.045 8.13281 158.666 7.13672C159.287 6.14062 160.049 5.23242 160.951 4.41211C161.854 3.5918 162.879 2.88867 164.027 2.30273C165.188 1.7168 166.465 1.26562 167.859 0.949219C169.254 0.621094 170.754 0.457031 172.359 0.457031C173.391 0.457031 174.375 0.521484 175.312 0.650391C176.262 0.779297 177.152 0.960938 177.984 1.19531C178.816 1.41797 179.584 1.68164 180.287 1.98633C181.002 2.2793 181.646 2.58984 182.221 2.91797L180.709 5.87109C180.053 5.55469 179.303 5.29102 178.459 5.08008C177.627 4.85742 176.76 4.74609 175.857 4.74609C174.65 4.74609 173.531 4.96289 172.5 5.39648C171.469 5.83008 170.578 6.44531 169.828 7.24219C169.078 8.03906 168.486 9.00586 168.053 10.1426C167.631 11.2676 167.42 12.5332 167.42 13.9395C167.42 15.334 167.631 16.5996 168.053 17.7363C168.475 18.8613 169.055 19.8281 169.793 20.6367C170.543 21.4336 171.428 22.0547 172.447 22.5C173.479 22.9336 174.592 23.1504 175.787 23.1504V14.3086H186.035L184.207 17.6309V24.7324L184.225 24.7676C183.65 25.1074 182.941 25.4355 182.098 25.752C181.254 26.0684 180.311 26.3555 179.268 26.6133C178.236 26.8594 177.135 27.0586 175.963 27.2109C174.791 27.3633 173.59 27.4395 172.359 27.4395C169.957 27.4395 167.789 27.0879 165.855 26.3848C163.934 25.6699 162.299 24.7031 160.951 23.4844C159.604 22.2539 158.566 20.8242 157.84 19.1953C157.125 17.5547 156.768 15.8086 156.768 13.957ZM189.973 0.878906H205.037C206.982 0.878906 208.682 1.08398 210.135 1.49414C211.6 1.9043 212.818 2.47852 213.791 3.2168C214.775 3.95508 215.514 4.83984 216.006 5.87109C216.498 6.90234 216.744 8.03906 216.744 9.28125C216.744 10.8164 216.381 12.1816 215.654 13.377C214.928 14.5605 213.85 15.5039 212.42 16.207L217.904 27.0176H206.426L202.277 17.5254H200.133V27H189.973V0.878906ZM200.748 14.3438C201.58 14.3438 202.324 14.2266 202.98 13.9922C203.637 13.7578 204.193 13.4297 204.65 13.0078C205.107 12.5742 205.459 12.0645 205.705 11.4785C205.951 10.8809 206.074 10.2305 206.074 9.52734C206.074 8.82422 205.951 8.17969 205.705 7.59375C205.459 6.99609 205.107 6.48633 204.65 6.06445C204.193 5.63086 203.637 5.29687 202.98 5.0625C202.324 4.82813 201.58 4.71094 200.748 4.71094H200.15L200.133 14.3438H200.748ZM229.998 7.4707L226.975 0.878906H237.68L250.477 27.0176H238.998L237.064 22.834H226.764L224.848 27.0176H220.4L229.998 7.4707ZM235.219 18.8086L231.914 11.6367L228.627 18.8086H235.219ZM254.062 0.878906H266.631C268.951 0.867187 270.949 1.07227 272.625 1.49414C274.312 1.9043 275.701 2.49609 276.791 3.26953C277.881 4.04297 278.684 4.97461 279.199 6.06445C279.727 7.14258 279.99 8.34375 279.99 9.66797C279.99 10.8281 279.744 11.9414 279.252 13.0078C278.771 14.0625 278.021 14.9941 277.002 15.8027C275.994 16.6113 274.705 17.2559 273.135 17.7363C271.576 18.2168 269.719 18.457 267.562 18.457H264.223V27H254.062V0.878906ZM264.223 14.625C265.031 14.6133 265.752 14.4902 266.385 14.2559C267.018 14.0098 267.551 13.6758 267.984 13.2539C268.418 12.8203 268.746 12.3047 268.969 11.707C269.203 11.0977 269.32 10.418 269.32 9.66797C269.32 8.92969 269.203 8.26172 268.969 7.66406C268.734 7.06641 268.395 6.55664 267.949 6.13477C267.516 5.70117 266.982 5.36133 266.35 5.11523C265.729 4.86914 265.02 4.73437 264.223 4.71094V14.625ZM284.191 0.878906H294.352V11.8301H301.857V0.878906H312.035L312.018 27H301.857V15.8555H294.352V27H284.191V0.878906ZM318.715 0.878906H328.893L328.875 27H318.715V0.878906ZM341.25 14.4492L332.777 0.878906H344.256L349.354 9.03516L354.557 0.878906H359.145L351.516 12.5156L360.586 27L349.107 27.0176L343.377 17.877L337.453 27.0176H332.848L341.25 14.4492Z" fill="#209573"/>
<path d="M0.339844 43.8789H11.0801C14.1035 43.8789 16.7227 44.166 18.9375 44.7402C21.1523 45.3027 22.9863 46.1348 24.4395 47.2363C25.8926 48.3379 26.9707 49.6914 27.6738 51.2969C28.377 52.9023 28.7285 54.7422 28.7285 56.8164C28.7285 58.668 28.377 60.3965 27.6738 62.002C26.9707 63.5957 25.8926 64.9902 24.4395 66.1855C22.9863 67.3691 21.1523 68.3008 18.9375 68.9805C16.7227 69.6602 14.1035 70 11.0801 70H0.339844V43.8789ZM10.5 66.168C11.6719 66.168 12.7266 65.9863 13.6641 65.623C14.6016 65.2598 15.3926 64.6973 16.0371 63.9355C16.6934 63.1738 17.1914 62.207 17.5312 61.0352C17.8828 59.8516 18.0586 58.4395 18.0586 56.7988C18.0586 55.1699 17.8828 53.7812 17.5312 52.6328C17.1797 51.4844 16.6758 50.5469 16.0195 49.8203C15.3633 49.082 14.5664 48.5488 13.6289 48.2207C12.7031 47.8809 11.666 47.7109 10.5176 47.7109L10.5 66.168ZM33.8789 43.8789H55.957V47.9043H44.0566L44.0391 54.9531H53.1445V58.9785H44.0391V65.9746H55.957V70H33.8789V43.8789ZM61.5469 64.1992C62.7891 64.832 64.0898 65.3066 65.4492 65.623C66.8086 65.9395 68.0742 66.0977 69.2461 66.0977C70.5938 66.0977 71.5781 65.9043 72.1992 65.5176C72.832 65.1309 73.1484 64.6035 73.1484 63.9355C73.1484 63.7246 73.1074 63.5078 73.0254 63.2852C72.9551 63.0625 72.8086 62.8457 72.5859 62.6348C72.375 62.4121 72.0762 62.1953 71.6895 61.9844C71.3145 61.7617 70.8223 61.5449 70.2129 61.334L67.0664 60.2617C64.8164 59.4883 63.123 58.4453 61.9863 57.1328C60.8496 55.8086 60.2812 54.2383 60.2812 52.4219C60.2812 51.25 60.5273 50.125 61.0195 49.0469C61.5117 47.957 62.2559 47.002 63.252 46.1816C64.248 45.3496 65.502 44.6875 67.0137 44.1953C68.5371 43.7031 70.3184 43.457 72.3574 43.457C73.3652 43.457 74.332 43.5156 75.2578 43.6328C76.1836 43.75 77.0508 43.9023 77.8594 44.0898C78.6797 44.2773 79.4297 44.4941 80.1094 44.7402C80.7891 44.9746 81.3867 45.209 81.9023 45.4434L80.0039 48.8711C79.6289 48.6367 79.2305 48.4316 78.8086 48.2559C78.3984 48.0801 77.9824 47.9336 77.5605 47.8164C77.1504 47.6992 76.7461 47.6113 76.3477 47.5527C75.9492 47.4941 75.5859 47.4648 75.2578 47.4648C74.6953 47.4648 74.2031 47.541 73.7812 47.6934C73.3594 47.834 73.002 48.0273 72.709 48.2734C72.4277 48.5078 72.2109 48.7773 72.0586 49.082C71.918 49.375 71.8477 49.668 71.8477 49.9609C71.8477 50.2188 71.9062 50.4707 72.0234 50.7168C72.1523 50.9512 72.3633 51.1855 72.6562 51.4199C72.9609 51.6426 73.3535 51.8711 73.834 52.1055C74.3262 52.3281 74.9355 52.5625 75.6621 52.8086L77.7715 53.5117C80.0566 54.2734 81.8027 55.3223 83.0098 56.6582C84.2168 57.9941 84.8203 59.6113 84.8203 61.5098C84.8203 62.7988 84.5273 63.9883 83.9414 65.0781C83.3672 66.168 82.5059 67.1113 81.3574 67.9082C80.209 68.6934 78.7793 69.3086 77.0684 69.7539C75.3691 70.1875 73.3945 70.4043 71.1445 70.4043C70.0664 70.4043 69.0234 70.3457 68.0156 70.2285C67.0195 70.123 66.041 69.959 65.0801 69.7363C64.1309 69.5137 63.1934 69.2324 62.2676 68.8926C61.3418 68.5527 60.416 68.1543 59.4902 67.6973L61.5469 64.1992ZM89.707 43.8789H99.8848L99.8672 70H89.707V43.8789ZM105.053 56.957C105.053 55.7148 105.211 54.5195 105.527 53.3711C105.855 52.2109 106.33 51.1328 106.951 50.1367C107.572 49.1406 108.334 48.2324 109.236 47.4121C110.139 46.5918 111.164 45.8887 112.312 45.3027C113.473 44.7168 114.75 44.2656 116.145 43.9492C117.539 43.6211 119.039 43.457 120.645 43.457C121.676 43.457 122.66 43.5215 123.598 43.6504C124.547 43.7793 125.438 43.9609 126.27 44.1953C127.102 44.418 127.869 44.6816 128.572 44.9863C129.287 45.2793 129.932 45.5898 130.506 45.918L128.994 48.8711C128.338 48.5547 127.588 48.291 126.744 48.0801C125.912 47.8574 125.045 47.7461 124.143 47.7461C122.936 47.7461 121.816 47.9629 120.785 48.3965C119.754 48.8301 118.863 49.4453 118.113 50.2422C117.363 51.0391 116.771 52.0059 116.338 53.1426C115.916 54.2676 115.705 55.5332 115.705 56.9395C115.705 58.334 115.916 59.5996 116.338 60.7363C116.76 61.8613 117.34 62.8281 118.078 63.6367C118.828 64.4336 119.713 65.0547 120.732 65.5C121.764 65.9336 122.877 66.1504 124.072 66.1504V57.3086H134.32L132.492 60.6309V67.7324L132.51 67.7676C131.936 68.1074 131.227 68.4355 130.383 68.752C129.539 69.0684 128.596 69.3555 127.553 69.6133C126.521 69.8594 125.42 70.0586 124.248 70.2109C123.076 70.3633 121.875 70.4395 120.645 70.4395C118.242 70.4395 116.074 70.0879 114.141 69.3848C112.219 68.6699 110.584 67.7031 109.236 66.4844C107.889 65.2539 106.852 63.8242 106.125 62.1953C105.41 60.5547 105.053 58.8086 105.053 56.957ZM138.258 43.8789H144.621L161.197 57.8008L161.215 43.8789H165.082V70H158.719L142.125 56.1309V70H138.258V43.8789Z" fill="#6EB692"/>
<path d="M172.113 64.1992C173.355 64.832 174.656 65.3066 176.016 65.623C177.375 65.9395 178.641 66.0977 179.812 66.0977C181.16 66.0977 182.145 65.9043 182.766 65.5176C183.398 65.1309 183.715 64.6035 183.715 63.9355C183.715 63.7246 183.674 63.5078 183.592 63.2852C183.521 63.0625 183.375 62.8457 183.152 62.6348C182.941 62.4121 182.643 62.1953 182.256 61.9844C181.881 61.7617 181.389 61.5449 180.779 61.334L177.633 60.2617C175.383 59.4883 173.689 58.4453 172.553 57.1328C171.416 55.8086 170.848 54.2383 170.848 52.4219C170.848 51.25 171.094 50.125 171.586 49.0469C172.078 47.957 172.822 47.002 173.818 46.1816C174.814 45.3496 176.068 44.6875 177.58 44.1953C179.104 43.7031 180.885 43.457 182.924 43.457C183.932 43.457 184.898 43.5156 185.824 43.6328C186.75 43.75 187.617 43.9023 188.426 44.0898C189.246 44.2773 189.996 44.4941 190.676 44.7402C191.355 44.9746 191.953 45.209 192.469 45.4434L190.57 48.8711C190.195 48.6367 189.797 48.4316 189.375 48.2559C188.965 48.0801 188.549 47.9336 188.127 47.8164C187.717 47.6992 187.312 47.6113 186.914 47.5527C186.516 47.4941 186.152 47.4648 185.824 47.4648C185.262 47.4648 184.77 47.541 184.348 47.6934C183.926 47.834 183.568 48.0273 183.275 48.2734C182.994 48.5078 182.777 48.7773 182.625 49.082C182.484 49.375 182.414 49.668 182.414 49.9609C182.414 50.2188 182.473 50.4707 182.59 50.7168C182.719 50.9512 182.93 51.1855 183.223 51.4199C183.527 51.6426 183.92 51.8711 184.4 52.1055C184.893 52.3281 185.502 52.5625 186.229 52.8086L188.338 53.5117C190.623 54.2734 192.369 55.3223 193.576 56.6582C194.783 57.9941 195.387 59.6113 195.387 61.5098C195.387 62.7988 195.094 63.9883 194.508 65.0781C193.934 66.168 193.072 67.1113 191.924 67.9082C190.775 68.6934 189.346 69.3086 187.635 69.7539C185.936 70.1875 183.961 70.4043 181.711 70.4043C180.633 70.4043 179.59 70.3457 178.582 70.2285C177.586 70.123 176.607 69.959 175.646 69.7363C174.697 69.5137 173.76 69.2324 172.834 68.8926C171.908 68.5527 170.982 68.1543 170.057 67.6973L172.113 64.1992ZM204.861 47.8867H197.408V43.8613H222.475V47.8867H215.021V70H204.861V47.8867ZM226.184 43.8789H236.344V60.4727C236.344 61.4102 236.467 62.2246 236.713 62.916C236.971 63.5957 237.322 64.1641 237.768 64.6211C238.225 65.0664 238.758 65.4004 239.367 65.623C239.977 65.8457 240.633 65.957 241.336 65.957C242.109 65.957 242.801 65.8457 243.41 65.623C244.031 65.4004 244.559 65.0605 244.992 64.6035C245.426 64.1465 245.76 63.5723 245.994 62.8809C246.229 62.1895 246.346 61.375 246.346 60.4375V43.8789H250.213V59.8398C250.213 61.457 249.949 62.916 249.422 64.2168C248.906 65.5176 248.168 66.6309 247.207 67.5566C246.246 68.4707 245.086 69.1738 243.727 69.666C242.367 70.1582 240.85 70.4043 239.174 70.4043C236.889 70.4043 234.926 70.1641 233.285 69.6836C231.645 69.1914 230.297 68.4941 229.242 67.5918C228.188 66.6777 227.414 65.5762 226.922 64.2871C226.43 62.998 226.184 61.5449 226.184 59.9277V43.8789ZM255.574 43.8789H266.314C269.338 43.8789 271.957 44.166 274.172 44.7402C276.387 45.3027 278.221 46.1348 279.674 47.2363C281.127 48.3379 282.205 49.6914 282.908 51.2969C283.611 52.9023 283.963 54.7422 283.963 56.8164C283.963 58.668 283.611 60.3965 282.908 62.002C282.205 63.5957 281.127 64.9902 279.674 66.1855C278.221 67.3691 276.387 68.3008 274.172 68.9805C271.957 69.6602 269.338 70 266.314 70H255.574V43.8789ZM265.734 66.168C266.906 66.168 267.961 65.9863 268.898 65.623C269.836 65.2598 270.627 64.6973 271.271 63.9355C271.928 63.1738 272.426 62.207 272.766 61.0352C273.117 59.8516 273.293 58.4395 273.293 56.7988C273.293 55.1699 273.117 53.7812 272.766 52.6328C272.414 51.4844 271.91 50.5469 271.254 49.8203C270.598 49.082 269.801 48.5488 268.863 48.2207C267.938 47.8809 266.9 47.7109 265.752 47.7109L265.734 66.168ZM289.113 43.8789H299.291L299.273 70H289.113V43.8789ZM304.459 56.8867C304.459 54.9062 304.775 53.0957 305.408 51.4551C306.041 49.8027 306.984 48.3848 308.238 47.2012C309.492 46.0176 311.057 45.0977 312.932 44.4414C314.807 43.7852 316.986 43.457 319.471 43.457C321.955 43.457 324.135 43.7852 326.01 44.4414C327.885 45.0977 329.449 46.0176 330.703 47.2012C331.957 48.3848 332.9 49.8027 333.533 51.4551C334.166 53.0957 334.482 54.9062 334.482 56.8867C334.482 58.8906 334.166 60.7246 333.533 62.3887C332.9 64.0527 331.957 65.4766 330.703 66.6602C329.449 67.8438 327.885 68.7637 326.01 69.4199C324.135 70.0762 321.955 70.4043 319.471 70.4043C316.986 70.4043 314.807 70.0762 312.932 69.4199C311.057 68.7637 309.492 67.8438 308.238 66.6602C306.984 65.4766 306.041 64.0527 305.408 62.3887C304.775 60.7246 304.459 58.8906 304.459 56.8867ZM319.471 66.7656C320.174 66.7656 320.795 66.6426 321.334 66.3965C321.873 66.1504 322.324 65.6699 322.688 64.9551C323.051 64.2402 323.326 63.2383 323.514 61.9492C323.701 60.6602 323.795 58.9727 323.795 56.8867C323.795 54.8242 323.701 53.1543 323.514 51.877C323.326 50.5996 323.051 49.6094 322.688 48.9062C322.324 48.2031 321.873 47.7285 321.334 47.4824C320.795 47.2363 320.174 47.1133 319.471 47.1133C318.768 47.1133 318.141 47.2363 317.59 47.4824C317.051 47.7285 316.6 48.2031 316.236 48.9062C315.873 49.6094 315.598 50.5996 315.41 51.877C315.223 53.1543 315.129 54.8242 315.129 56.8867C315.129 58.9727 315.223 60.6602 315.41 61.9492C315.598 63.2383 315.873 64.2402 316.236 64.9551C316.6 65.6699 317.051 66.1504 317.59 66.3965C318.141 66.6426 318.768 66.7656 319.471 66.7656Z" fill="#367E3E"/>
</svg>
